<svg xmlns="http://www.w3.org/2000/svg" xmlns:xlink="http://www.w3.org/1999/xlink" preserveAspectRatio="xMidYMid" width="152" height="56" viewBox="0 0 152 56">
  <defs>
    <style>
      .cls-1, .cls-2 {
        fill: #fd8d7b;
      }

      .cls-2, .cls-3, .cls-4 {
        fill-rule: evenodd;
      }

      .cls-3 {
        fill: #fff;
      }

      .cls-4 {
        fill: #3b4040;
      }
    </style>
  </defs>
  <g>
    <circle cx="23" cy="33" r="23" class="cls-1"/>
    <path d="M57.000,4.000 C55.895,4.000 55.000,3.105 55.000,2.000 C55.000,0.895 55.895,-0.000 57.000,-0.000 C58.105,-0.000 59.000,0.895 59.000,2.000 C59.000,3.105 58.105,4.000 57.000,4.000 ZM46.500,17.000 C42.910,17.000 40.000,14.090 40.000,10.500 C40.000,6.910 42.910,4.000 46.500,4.000 C50.090,4.000 53.000,6.910 53.000,10.500 C53.000,14.090 50.090,17.000 46.500,17.000 Z" class="cls-2"/>
    <path d="M22.836,41.000 L22.836,34.379 L24.495,34.379 C27.115,34.379 28.426,33.027 28.426,30.324 L28.426,28.309 C28.426,26.996 28.116,25.982 27.497,25.268 C26.878,24.553 25.926,24.195 24.640,24.195 L20.961,24.195 L20.961,41.000 L22.836,41.000 ZM22.836,25.906 L24.629,25.906 C25.301,25.906 25.789,26.094 26.094,26.469 C26.398,26.844 26.551,27.422 26.551,28.203 L26.551,30.441 C26.551,31.231 26.385,31.803 26.053,32.158 C25.721,32.514 25.199,32.691 24.488,32.691 L22.836,32.691 L22.836,25.906 Z" class="cls-3"/>
    <path d="M137.000,50.000 L70.000,50.000 C63.954,50.000 58.746,46.421 56.372,41.267 L51.001,35.000 L56.372,28.733 C58.746,23.579 63.954,20.000 70.000,20.000 L137.000,20.000 C145.284,20.000 152.000,26.716 152.000,35.000 C152.000,43.284 145.284,50.000 137.000,50.000 Z" class="cls-4"/>
    <path d="M126.289,40.000 C126.149,39.677 126.078,39.224 126.078,38.641 L126.078,36.883 C126.078,36.273 125.943,35.844 125.672,35.594 C125.401,35.344 124.993,35.219 124.446,35.219 L123.571,35.219 L123.571,40.000 L122.321,40.000 L122.321,28.797 L124.813,28.797 C125.677,28.797 126.310,29.012 126.711,29.441 C127.112,29.871 127.313,30.510 127.313,31.359 L127.313,32.273 C127.313,33.518 126.849,34.286 125.922,34.578 C126.417,34.724 126.775,34.994 126.996,35.387 C127.218,35.780 127.328,36.289 127.328,36.914 L127.328,38.656 C127.328,39.276 127.399,39.724 127.539,40.000 L126.289,40.000 ZM126.078,32.547 L126.078,31.469 C126.078,30.953 125.976,30.569 125.770,30.316 C125.564,30.064 125.235,29.937 124.782,29.937 L123.571,29.937 L123.571,34.078 L124.493,34.078 C125.024,34.078 125.421,33.968 125.684,33.746 C125.947,33.525 126.078,33.125 126.078,32.547 ZM118.155,37.742 L115.315,37.742 L114.892,40.000 L113.720,40.000 L115.859,28.797 L117.697,28.797 L119.837,40.000 L118.587,40.000 L118.155,37.742 ZM116.717,30.254 L115.515,36.672 L117.949,36.672 L116.717,30.254 ZM107.761,28.797 L109.011,28.797 L109.011,38.867 L112.206,38.867 L112.206,40.000 L107.761,40.000 L107.761,28.797 ZM102.922,40.125 C102.095,40.125 101.474,39.874 101.058,39.371 C100.642,38.869 100.434,38.177 100.434,37.297 L100.434,28.797 L101.652,28.797 L101.652,37.359 C101.652,38.437 102.091,38.977 102.969,38.977 C103.836,38.977 104.270,38.437 104.270,37.359 L104.270,28.797 L105.442,28.797 L105.442,37.297 C105.442,38.177 105.232,38.869 104.812,39.371 C104.392,39.874 103.762,40.125 102.922,40.125 ZM95.557,35.586 L94.451,35.586 L94.451,40.000 L93.201,40.000 L93.201,28.797 L95.654,28.797 C96.510,28.797 97.145,29.035 97.558,29.512 C97.971,29.988 98.177,30.664 98.177,31.539 L98.177,32.883 C98.177,34.685 97.304,35.586 95.557,35.586 ZM96.927,31.469 C96.927,30.948 96.826,30.563 96.622,30.312 C96.419,30.063 96.094,29.937 95.646,29.937 L94.451,29.937 L94.451,34.461 L95.552,34.461 C96.026,34.461 96.374,34.343 96.595,34.105 C96.816,33.869 96.927,33.487 96.927,32.961 L96.927,31.469 ZM88.378,40.109 C87.546,40.109 86.912,39.858 86.478,39.355 C86.044,38.853 85.827,38.167 85.827,37.297 L85.827,31.508 C85.827,30.628 86.043,29.937 86.474,29.438 C86.906,28.938 87.540,28.688 88.378,28.688 C89.223,28.688 89.864,28.938 90.302,29.438 C90.741,29.937 90.960,30.628 90.960,31.508 L90.960,37.297 C90.960,38.167 90.741,38.853 90.302,39.355 C89.864,39.858 89.223,40.109 88.378,40.109 ZM89.710,31.437 C89.710,30.922 89.600,30.523 89.381,30.242 C89.161,29.961 88.827,29.820 88.378,29.820 C87.934,29.820 87.601,29.961 87.379,30.242 C87.157,30.523 87.046,30.922 87.046,31.437 L87.046,37.359 C87.046,37.880 87.157,38.280 87.379,38.559 C87.601,38.837 87.934,38.977 88.378,38.977 C89.266,38.977 89.710,38.437 89.710,37.359 L89.710,31.437 ZM80.997,35.586 L79.891,35.586 L79.891,40.000 L78.641,40.000 L78.641,28.797 L81.094,28.797 C81.950,28.797 82.585,29.035 82.998,29.512 C83.411,29.988 83.617,30.664 83.617,31.539 L83.617,32.883 C83.617,34.685 82.744,35.586 80.997,35.586 ZM82.367,31.469 C82.367,30.948 82.266,30.563 82.063,30.312 C81.859,30.063 81.534,29.937 81.086,29.937 L79.891,29.937 L79.891,34.461 L80.992,34.461 C81.466,34.461 81.814,34.343 82.035,34.105 C82.256,33.869 82.367,33.487 82.367,32.961 L82.367,31.469 Z" class="cls-3"/>
  </g>
</svg>
